nColumns=19
nRows=25
DataType=double
version=3
OpenSimVersion=4.1
endheader
time	ground_force_calcn_r_vx	ground_force_calcn_r_vy	ground_force_calcn_r_vz	ground_force_calcn_r_px	ground_force_calcn_r_py	ground_force_calcn_r_pz	ground_force_calcn_r_mx	ground_force_calcn_r_my	ground_force_calcn_r_mz	ground_force_calcn_l_vx	ground_force_calcn_l_vy	ground_force_calcn_l_vz	ground_force_calcn_l_px	ground_force_calcn_l_py	ground_force_calcn_l_pz	ground_force_calcn_l_mx	ground_force_calcn_l_my	ground_force_calcn_l_mz
0	-3.94833	290.924	-37.2322	-0.198766	0	-0.372093	0.0233098	-1.71753	0.219808	-0.763873	313.716	37.6785	-0.181397	0	-0.769447	-0.00161365	0.662711	0.079594
0.01	-3.7526	292.039	-37.3373	-0.199107	0	-0.37226	0.022156	-1.72424	0.220445	-0.592721	314.006	37.6891	-0.181725	0	-0.769542	-0.00124377	0.65891	0.0790868
0.02	-3.51772	293.258	-37.4477	-0.199539	0	-0.372452	0.0207745	-1.73188	0.221153	-0.383964	314.245	37.6952	-0.182128	0	-0.769623	-0.000805932	0.659594	0.0791213
0.03	-3.24094	294.537	-37.5558	-0.200069	0	-0.37267	0.0191445	-1.73985	0.221845	-0.134439	314.397	37.6922	-0.182615	0	-0.769686	-0.000284477	0.665272	0.0797576
0.04	-2.91976	295.819	-37.6512	-0.200699	0	-0.372913	0.0172453	-1.74723	0.222383	0.159009	314.412	37.6734	-0.183184	0	-0.769726	0.000341831	0.67591	0.0809886
0.05	-2.55199	297.033	-37.7228	-0.201429	0	-0.373185	0.0150581	-1.75266	0.222585	0.499578	314.23	37.6295	-0.183836	0	-0.769739	0.00109858	0.690995	0.0827476
0.06	-2.13551	298.102	-37.7592	-0.202264	0	-0.37349	0.0125691	-1.75455	0.222241	0.890391	313.776	37.5491	-0.184568	0	-0.76972	0.00201396	0.709727	0.0849319
0.07	-1.66887	298.943	-37.7507	-0.2032	0	-0.373828	0.0097757	-1.7511	0.221131	1.33357	312.965	37.4197	-0.185377	0	-0.769664	0.00311472	0.73097	0.0873984
0.08	-1.15163	299.464	-37.6888	-0.204238	0	-0.374199	0.00669322	-1.74048	0.219046	1.82924	311.705	37.228	-0.18626	0	-0.769569	0.00442099	0.753342	0.089974
0.09	-0.585114	299.568	-37.5669	-0.205379	0	-0.374603	0.00336145	-1.721	0.21582	2.37441	309.902	36.9606	-0.187211	0	-0.769427	0.00594018	0.775296	0.092466
0.1	0.0261615	299.154	-37.3801	-0.206617	0	-0.375043	-0.000147903	-1.69126	0.211327	2.96166	307.462	36.6044	-0.188229	0	-0.769234	0.00765888	0.795101	0.0946594
0.11	0.673429	298.133	-37.1248	-0.207952	0	-0.375517	-0.00372771	-1.65029	0.205501	3.57779	304.3	36.1471	-0.189308	0	-0.768982	0.00953365	0.810861	0.0963202
0.12	1.34235	296.422	-36.7979	-0.209379	0	-0.376028	-0.00723524	-1.59771	0.19834	4.20269	300.338	35.5777	-0.190447	0	-0.768665	0.0114832	0.820625	0.0972102
0.13	2.01265	293.954	-36.3969	-0.210894	0	-0.376577	-0.0105009	-1.53368	0.189898	4.8086	295.512	34.8877	-0.191638	0	-0.768277	0.0133817	0.822372	0.0970881
0.14	2.65802	290.68	-35.9204	-0.212489	0	-0.377168	-0.0133397	-1.45883	0.180272	5.36004	289.777	34.072	-0.192874	0	-0.767812	0.0150559	0.813958	0.0957053
0.15	3.24698	286.587	-35.3708	-0.214156	0	-0.377803	-0.0155666	-1.37395	0.169574	5.81588	283.121	33.1305	-0.194142	0	-0.767263	0.0162909	0.793051	0.0928018
0.16	3.7451	281.707	-34.7561	-0.215884	0	-0.378485	-0.017017	-1.28002	0.157924	6.13436	275.581	32.0697	-0.195428	0	-0.766622	0.0168615	0.757489	0.0881498
0.17	4.11819	276.127	-34.0907	-0.217663	0	-0.379217	-0.0175697	-1.17806	0.145444	6.27817	267.253	30.9026	-0.196721	0	-0.765884	0.0165794	0.70576	0.0816074
0.18	4.33723	269.988	-33.3962	-0.219479	0	-0.379998	-0.0171761	-1.06919	0.132254	6.2194	258.3	29.6501	-0.198013	0	-0.765042	0.015343	0.637217	0.0731459
0.19	4.38358	263.478	-32.6991	-0.221323	0	-0.380832	-0.0158839	-0.954713	0.118485	5.94466	248.954	28.3419	-0.199297	0	-0.764096	0.013184	0.552126	0.0628563
0.2	4.25191	256.821	-32.0287	-0.223183	0	-0.381715	-0.0138411	-0.836018	0.104262	5.45661	239.506	27.0151	-0.200574	0	-0.763048	0.0102895	0.451637	0.0509424
0.21	3.94957	250.26	-31.4133	-0.225053	0	-0.382643	-0.0112791	-0.714688	0.0897098	4.77202	230.287	25.7138	-0.201844	0	-0.76191	0.00699822	0.337718	0.0377095
0.22	3.49347	244.047	-30.8784	-0.226921	0	-0.38361	-0.0084802	-0.59241	0.0749556	3.91741	221.655	24.4884	-0.203103	0	-0.760705	0.00376493	0.213027	0.0235353
0.23	2.90716	238.43	-30.444	-0.228772	0	-0.384604	-0.00574013	-0.470776	0.0601112	2.92641	213.972	23.3918	-0.204344	0	-0.759474	0.00110528	0.080815	0.00883483
0.24	2.21931	233.642	-30.1246	-0.230587	0	-0.385611	-0.00333651	-0.351258	0.0452893	1.84046	207.58	22.4728	-0.205557	0	-0.758271	-0.000487023	-0.0549299	-0.00594674
